<svg width="158" height="63" viewBox="0 0 158 63" fill="none" xmlns="http://www.w3.org/2000/svg">
<path fill-rule="evenodd" clip-rule="evenodd" d="M82.9633 52.7785V37.2669L66.2314 30.2819L75.0132 21.0906L63.5038 10.088L60.2397 16.8225L60.3649 10.3481L45.7793 15.3677L46.1549 23.8075L48.632 23.1139L51.2076 52.8941L61.4917 51.2659L61.4738 41.3231L82.9633 52.7785Z" fill="#0B0000"/>
<path fill-rule="evenodd" clip-rule="evenodd" d="M48.5242 17.534L57.3864 14.6919L57.9319 24.5287L64.4602 14.6533L70.8363 21.1951L61.9204 31.321L80.271 39.1539V48.1621L58.9514 36.6682L58.9872 48.7113L53.4695 49.5206L51.1176 19.3935L48.6315 20.0872L48.5242 17.534Z" fill="white"/>
<path fill-rule="evenodd" clip-rule="evenodd" d="M115.719 11.5707H106.061L105.784 13.276H95.6248L90.8762 44.5592L102.466 46.5246L103.101 42.035L106.133 48.0565L107.975 44.2124L108.654 50.523L121.791 53.0183L115.719 11.5707Z" fill="#0B0000"/>
<path fill-rule="evenodd" clip-rule="evenodd" d="M108.601 14.4624H113.52L118.501 49.3104L111.239 48.1157L109.308 34.3287L106.58 41.9304L102.484 32.4307H102.44L100.821 43.443L94.0156 42.1616L98.0667 16.0714H104.953L106.67 26.1876L108.601 14.4624Z" fill="white"/>
<path fill-rule="evenodd" clip-rule="evenodd" d="M128.016 14.4229L142.548 17.8624L143.63 23.6431L144.802 18.4308L157.17 21.6584L145.294 60.206L136.181 57.1133L136.11 53.2499L127.364 51.93L130.315 23.6431L128.124 23.1132L128.016 14.4229Z" fill="#0B0000"/>
<path fill-rule="evenodd" clip-rule="evenodd" d="M130.601 18.0354L140.072 20.0875L143.264 36.3699L146.528 21.7736L153.736 23.4982L143.586 56.6216L138.542 54.9933L138.104 34.9729L135.564 50.417L130.065 49.4824L132.533 21.4364L130.458 20.839L130.601 18.0354Z" fill="white"/>
<path fill-rule="evenodd" clip-rule="evenodd" d="M126.621 47.4782C123.482 48.75 120.147 48.6055 117.464 47.0639C114.978 45.6477 113.243 43.1909 112.572 40.156C111.231 34.1055 114.942 27.1976 120.844 24.7601C124.019 23.4691 127.381 23.6232 130.082 25.1744C132.541 26.581 134.258 28.98 134.911 31.9281C136.28 38.0653 132.568 45.0407 126.621 47.4782Z" fill="#0B0000"/>
<path fill-rule="evenodd" clip-rule="evenodd" d="M132.611 32.4882C131.538 27.6324 126.727 25.1949 121.79 27.1988C117.006 29.1739 113.867 34.7523 114.949 39.6081C116.058 44.618 120.825 47.0459 125.761 45.0419C130.581 43.0765 133.72 37.4596 132.611 32.4882Z" fill="white"/>
<path fill-rule="evenodd" clip-rule="evenodd" d="M129.026 33.3441C128.927 36.0225 126.763 38.0457 124.116 37.9301C121.514 37.8145 119.511 35.6178 119.609 32.9394C119.707 30.4248 121.863 28.4016 124.51 28.5172C127.121 28.6328 129.124 30.8295 129.026 33.3441Z" fill="#0B0000"/>
<path fill-rule="evenodd" clip-rule="evenodd" d="M125.662 28.6329C124.079 28.5654 122.756 29.7409 122.693 31.2535C122.64 32.7661 123.874 34.0571 125.457 34.1246C127.039 34.192 128.363 33.0166 128.426 31.504C128.479 29.9914 127.245 28.7003 125.662 28.6329Z" fill="white"/>
<path fill-rule="evenodd" clip-rule="evenodd" d="M46.5021 50.8517C43.2916 52.3162 39.8129 52.3162 36.9601 50.8421C34.322 49.474 32.4172 47.0076 31.6034 43.8763C29.9759 37.6428 33.5619 30.2917 39.6072 27.4881C42.8534 26.014 46.359 26.014 49.2296 27.5073C51.8409 28.8561 53.7189 31.2744 54.5148 34.3093C56.1781 40.6295 52.5831 48.0577 46.5021 50.8517Z" fill="#0B0000"/>
<path fill-rule="evenodd" clip-rule="evenodd" d="M52.2167 34.6943C50.8931 29.6458 45.76 27.3143 40.6626 29.6458C35.7173 31.9388 32.6499 37.9315 33.9735 42.98C35.3328 48.1922 40.4301 50.5141 45.5275 48.1922C50.5086 45.8992 53.576 39.8584 52.2167 34.6943Z" fill="white"/>
<path fill-rule="evenodd" clip-rule="evenodd" d="M48.7656 35.6571C48.7656 38.3355 46.6819 40.4455 44.0349 40.4455C41.4325 40.4455 39.3489 38.3355 39.3489 35.6571C39.3489 33.1425 41.4325 31.0229 44.0796 31.0229C46.6819 31.0229 48.7656 33.1329 48.7656 35.6571Z" fill="#0B0000"/>
<path fill-rule="evenodd" clip-rule="evenodd" d="M45.2324 31.09C43.6496 31.09 42.3618 32.3232 42.3618 33.8358C42.3618 35.3484 43.6406 36.5816 45.2324 36.5816C46.8153 36.5816 48.1031 35.3484 48.1031 33.8358C48.1031 32.3232 46.8153 31.09 45.2324 31.09Z" fill="white"/>
<path fill-rule="evenodd" clip-rule="evenodd" d="M28.7867 41.5449C35.6905 36.0821 38.9815 27.8253 36.4864 21.6304C35.3954 18.9231 33.4817 16.6879 31.1387 15.2812C29.4932 14.1058 27.5347 13.364 25.4779 13.1135C20.4342 12.1596 14.3799 13.1424 8.42407 15.8689C6.2331 16.8709 4.18521 18.027 2.343 19.2892L0 20.8789L1.40401 23.4416L5.76807 31.3901C5.76807 31.3901 7.10949 33.8373 7.11843 33.8276L9.48826 32.5848L9.81914 32.4114L20.6667 58.5112L21.713 61.0162L24.1454 60.178L30.0208 58.1547L32.5963 57.2684L31.9167 54.4551L28.7867 41.5449Z" fill="black"/>
<path fill-rule="evenodd" clip-rule="evenodd" d="M33.8644 22.8526C32.997 20.7041 31.5035 19.0181 29.554 17.833C28.1411 16.8214 26.5045 16.3204 24.9753 16.1374C20.6291 15.3184 15.2188 16.0892 9.52224 18.6905C7.49224 19.6154 5.59638 20.6752 3.85254 21.8699L8.2166 29.8183C9.33445 29.2306 10.5417 28.6044 11.1945 28.2287L23.2583 57.2381L29.1337 55.2149L25.5119 40.2043C32.4604 35.6087 35.966 28.0649 33.8644 22.8526Z" fill="white"/>
<path fill-rule="evenodd" clip-rule="evenodd" d="M95.5811 30.4842L91.4496 26.4763L93.4796 24.1544L95.3039 22.0637L93.6227 19.8381C90.3407 15.4833 85.0913 13.7395 79.5826 15.175C71.9186 17.1597 67.5993 24.27 69.3073 32.0643C69.9959 35.2051 71.8202 37.8932 74.4584 39.637C77.6062 41.7277 81.5678 42.2961 85.601 41.246C89.8578 40.138 92.9877 38.2785 95.7332 35.2244L97.9331 32.7772L95.5811 30.4842Z" fill="#0B0000"/>
<path fill-rule="evenodd" clip-rule="evenodd" d="M89.2295 28.586C88.1921 29.9059 87.0027 31.1102 84.8922 31.6594C84.1858 31.8425 83.2289 32.0159 82.6208 31.9003L91.5009 21.7166C88.997 18.3927 84.8833 16.8512 80.2241 18.0651C74.4292 19.5681 70.5123 24.7707 71.961 31.3993C73.1236 36.7272 78.5965 39.9933 84.9459 38.3458C88.7913 37.3438 91.4652 35.7444 93.8618 33.0757L89.2295 28.586Z" fill="white"/>
<path fill-rule="evenodd" clip-rule="evenodd" d="M75.3606 13.4979L86.235 0L92.2535 9.68267L78.5085 17.6408L75.3606 13.4979Z" fill="#0B0000"/>
<path fill-rule="evenodd" clip-rule="evenodd" d="M85.7692 4.29663L88.9529 8.95973L79.8581 13.8155L79.2231 12.7846L85.7692 4.29663Z" fill="white"/>
<path fill-rule="evenodd" clip-rule="evenodd" d="M79.0286 28.7393C78.3758 27.4579 78.501 25.8104 79.4758 24.6639C80.4148 23.5559 81.8456 23.238 83.0707 23.7486L79.0286 28.7393ZM79.4758 24.6639C78.5099 25.8104 78.3758 27.4579 79.0286 28.7393L83.0707 23.7486C81.8456 23.238 80.4058 23.5559 79.4758 24.6639ZM85.3154 22.9971C83.2407 20.9642 80.0392 21.128 78.1522 23.3632C76.2653 25.5984 76.4173 29.0476 78.4921 31.0805C78.662 31.2539 78.8498 31.3984 79.0376 31.5333L85.682 23.3825C85.5568 23.2476 85.4406 23.1224 85.3154 22.9971ZM79.0286 28.7393C78.3758 27.4579 78.501 25.8104 79.4758 24.6639C80.4148 23.5559 81.8456 23.238 83.0707 23.7486L79.0286 28.7393Z" fill="black"/>
<path fill-rule="evenodd" clip-rule="evenodd" d="M29.297 27.8149C28.7783 24.7415 25.0671 23.017 21.3469 25.1655L22.277 28.6917L23.7436 33.8943L24.4143 36.2644C27.2044 34.3664 30.0124 32.0734 29.297 27.8149ZM25.6037 32.5166C25.2012 31.0907 24.3338 28.0173 24.3338 28.0173C24.3427 28.0365 24.1549 27.3525 23.9582 26.5914C24.7452 26.4372 25.4964 26.5143 26.1224 26.8419C26.4711 27.0249 27.0703 27.4392 27.1955 28.2292C27.4906 29.9923 26.9272 31.2545 25.6037 32.5166Z" fill="black"/>
<path fill-rule="evenodd" clip-rule="evenodd" d="M30.8906 62.8947C30.8996 62.9236 30.9085 62.9428 30.9175 62.9717C30.9175 62.9814 30.9264 62.991 30.9264 63.0006C30.9175 62.9621 30.8996 62.9332 30.8906 62.8947Z" fill="black"/>
<path fill-rule="evenodd" clip-rule="evenodd" d="M147.912 56.7094H150.586V57.1333H149.477V60.2645H149.021V57.1333H147.912V56.7094Z" fill="black"/>
<path fill-rule="evenodd" clip-rule="evenodd" d="M150.982 60.2645V56.7094H151.626L152.574 59.7153L153.513 56.7094H154.148V60.2645H153.727V58.1642C153.727 58.0871 153.727 57.9715 153.736 57.8077C153.736 57.6439 153.736 57.4608 153.736 57.2682L152.797 60.2645H152.359L151.411 57.2682V57.3741C151.411 57.4608 151.411 57.5957 151.42 57.7691C151.42 57.9426 151.429 58.0774 151.429 58.1642V60.2645H150.982Z" fill="black"/>
</svg>
